<svg xmlns="http://www.w3.org/2000/svg" viewBox="0 0 160 120" fill="none">
  <rect width="160" height="120" rx="10" fill="#0A0B14"/>
  <rect x="22" y="18" width="76" height="60" rx="4" fill="#1C1D26" stroke="#3A3B4C" stroke-width="2"/>
  <rect x="28" y="24" width="64" height="48" rx="2" fill="#08101E" stroke="#253248" stroke-width="1.5"/>
  <circle cx="60" cy="48" r="14" fill="rgba(56, 189, 248, 0.15)"/>
  <path d="M52 42l16 0M52 48l16 0M52 54l10 0" stroke="#38BDF8" stroke-width="1.5" stroke-linecap="round" opacity="0.6"/>
  <path d="M54 78h12v12H54z" fill="#2A2B38"/>
  <path d="M44 90h32v4H44z" rx="2" fill="#3A3B4C"/>
  <rect x="106" y="16" width="34" height="78" rx="3" fill="#181924" stroke="#3A3B4C" stroke-width="2"/>
  <rect x="112" y="24" width="22" height="6" rx="1" fill="#0E0F17" stroke="#2A2B3A" stroke-width="1"/>
  <rect x="112" y="34" width="22" height="6" rx="1" fill="#0E0F17" stroke="#2A2B3A" stroke-width="1"/>
  <circle cx="123" cy="50" r="3" fill="#38BDF8" opacity="0.7"/>
  <line x1="112" y1="64" x2="134" y2="64" stroke="#2A2B3A" stroke-width="1.5"/>
  <line x1="112" y1="70" x2="134" y2="70" stroke="#2A2B3A" stroke-width="1.5"/>
  <line x1="112" y1="76" x2="134" y2="76" stroke="#2A2B3A" stroke-width="1.5"/>
  <line x1="112" y1="82" x2="134" y2="82" stroke="#2A2B3A" stroke-width="1.5"/>
  <rect x="22" y="98" width="70" height="8" rx="2" fill="#1C1D26" stroke="#2E2F3E" stroke-width="1"/>
  <ellipse cx="106" cy="102" rx="6" ry="4" fill="#1C1D26" stroke="#2E2F3E" stroke-width="1"/>
</svg>
